# xmcd
# 
# Track frame offsets:
#     150
#     14135
#     25032
#     41430
#     54752
#     69595
#     87357
#     98967
#     112925
#     131927
#     144080
#     158010
#     176925
#     189285
#     203627
# 
# Disc length: 2877
# 
# Revision: 21
# Processed by: cddbd v1.5.2PL0 Copyright (c) Steve Scherf et al.
# Submitted via: fre:ac v1.0.31
# 
DISCID=c30b3b0f
DTITLE=Norah Jones - Come Away With Me
DYEAR=2002
DGENRE=Jazz
TTITLE0=Don't Know Why
TTITLE1=Seven Years
TTITLE2=Cold Cold Heart
TTITLE3=Feelin' The Same Way
TTITLE4=Come Away With Me
TTITLE5=Shoot The Moon
TTITLE6=Turn Me On
TTITLE7=Lonestar
TTITLE8=I've Got To See You Again
TTITLE9=Painter Song
TTITLE10=One Flight Down
TTITLE11=Nightingale
TTITLE12=The Long Day Is Over
TTITLE13=The Nearness Of You
TTITLE14=What Am I To You
EXTD=YEAR: 2002
EXTT0=
EXTT1=
EXTT2=
EXTT3=
EXTT4=
EXTT5=
EXTT6=
EXTT7=
EXTT8=
EXTT9=
EXTT10=
EXTT11=
EXTT12=
EXTT13=
EXTT14=
PLAYORDER=
